<svg width="90" height="90" viewBox="0 0 90 90" fill="none" xmlns="http://www.w3.org/2000/svg">
<circle cx="45" cy="45" r="44.5" stroke="white"/>
<mask id="path-2-inside-1_691_7416" fill="white">
<path fill-rule="evenodd" clip-rule="evenodd" d="M45.0001 83.7927C66.425 83.7927 83.7932 66.4245 83.7932 44.9996C83.7932 23.5748 66.425 6.20654 45.0001 6.20654C23.5753 6.20654 6.20703 23.5748 6.20703 44.9996C6.20703 66.4245 23.5753 83.7927 45.0001 83.7927ZM57.9362 45.7924C58.4562 45.3921 58.4562 44.6079 57.9362 44.2076L39.6273 30.1133C38.9697 29.6071 38.0173 30.0759 38.0173 30.9058V59.0942C38.0173 59.924 38.9697 60.3928 39.6273 59.8866L57.9362 45.7924Z"/>
</mask>
<path fill-rule="evenodd" clip-rule="evenodd" d="M45.0001 83.7927C66.425 83.7927 83.7932 66.4245 83.7932 44.9996C83.7932 23.5748 66.425 6.20654 45.0001 6.20654C23.5753 6.20654 6.20703 23.5748 6.20703 44.9996C6.20703 66.4245 23.5753 83.7927 45.0001 83.7927ZM57.9362 45.7924C58.4562 45.3921 58.4562 44.6079 57.9362 44.2076L39.6273 30.1133C38.9697 29.6071 38.0173 30.0759 38.0173 30.9058V59.0942C38.0173 59.924 38.9697 60.3928 39.6273 59.8866L57.9362 45.7924Z" fill="white"/>
<path d="M57.9362 44.2076L57.3262 45V45L57.9362 44.2076ZM57.9362 45.7924L57.3262 45V45L57.9362 45.7924ZM39.6273 30.1133L39.0173 30.9058L39.0173 30.9058L39.6273 30.1133ZM39.6273 59.8866L39.0173 59.0942H39.0173L39.6273 59.8866ZM82.7932 44.9996C82.7932 65.8722 65.8727 82.7927 45.0001 82.7927V84.7927C66.9773 84.7927 84.7932 66.9768 84.7932 44.9996H82.7932ZM45.0001 7.20654C65.8727 7.20654 82.7932 24.1271 82.7932 44.9996H84.7932C84.7932 23.0225 66.9773 5.20654 45.0001 5.20654V7.20654ZM7.20703 44.9996C7.20703 24.1271 24.1276 7.20654 45.0001 7.20654V5.20654C23.023 5.20654 5.20703 23.0225 5.20703 44.9996H7.20703ZM45.0001 82.7927C24.1276 82.7927 7.20703 65.8722 7.20703 44.9996H5.20703C5.20703 66.9768 23.023 84.7927 45.0001 84.7927V82.7927ZM57.3262 45V45L58.5462 46.5848C59.5862 45.7842 59.5862 44.2158 58.5462 43.4151L57.3262 45ZM39.0173 30.9058L57.3262 45L58.5462 43.4152L40.2373 29.3209L39.0173 30.9058ZM39.0173 30.9058L39.0173 30.9058L40.2373 29.3209C38.9221 28.3085 37.0173 29.2461 37.0173 30.9058H39.0173ZM39.0173 59.0942V30.9058H37.0173V59.0942H39.0173ZM39.0173 59.0942H37.0173C37.0173 60.7539 38.9221 61.6914 40.2373 60.679L39.0173 59.0942ZM57.3262 45L39.0173 59.0942L40.2373 60.679L58.5462 46.5848L57.3262 45Z" fill="white" mask="url(#path-2-inside-1_691_7416)"/>
</svg>
