<svg width="1320" height="148" viewBox="0 0 1320 148" fill="none" xmlns="http://www.w3.org/2000/svg">
<path fill-rule="evenodd" clip-rule="evenodd" d="M0 40C0 17.9086 17.9086 0 40 0H391C413.091 0 431 17.9086 431 40V44.8004C434.9 50.1722 438.77 51.4127 444 45.3768V40C444 17.9086 461.908 0 484 0H835C857.091 0 875 17.9086 875 40V44.4562C879.195 50.6001 883.287 52.1307 889 45.1481V41.4658C889 19.3744 906.909 1.46582 929 1.46582H1280C1302.09 1.46582 1320 19.3744 1320 41.4658V108C1320 130.091 1302.09 148 1280 148H929C908.688 148 891.912 132.86 889.341 113.249C882.069 106.298 878.602 108.358 874.281 114.123C870.735 132.586 854.496 146.534 835 146.534H484C464.058 146.534 447.525 131.942 444.496 112.853C437.714 106.915 434.137 108.91 430.335 113.836C426.904 132.441 410.598 146.534 391 146.534H40C17.9086 146.534 0 128.626 0 106.534V40Z" fill="url(#paint0_linear_691_7389)"/>
<defs>
<linearGradient id="paint0_linear_691_7389" x1="-2.45869e-06" y1="74" x2="1320" y2="74" gradientUnits="userSpaceOnUse">
<stop stop-color="#3D367F"/>
<stop offset="1" stop-color="#D0AAF5"/>
</linearGradient>
</defs>
</svg>
