<svg width="36" height="36" viewBox="0 0 36 36" fill="none" xmlns="http://www.w3.org/2000/svg">
<path d="M24.1954 5.29095L24.1949 5.29111L11.0271 9.66579C11.0269 9.66586 11.0267 9.66593 11.0265 9.666C8.84581 10.3954 7.24933 11.2276 6.20786 12.0887C5.1646 12.9513 4.72949 13.7963 4.72949 14.5637C4.72949 15.331 5.16445 16.1751 6.20749 17.0357C7.24885 17.895 8.84529 18.7246 11.0261 19.4504L24.1954 5.29095ZM24.1954 5.29095C27.0715 4.33224 29.1116 4.69567 30.2114 5.797C31.3116 6.89882 31.6747 8.94308 30.7233 11.8192C30.7232 11.8195 30.7231 11.8197 30.723 11.82L26.3339 24.9729L26.3337 24.9733M24.1954 5.29095L26.3337 24.9733M26.3337 24.9733C25.608 27.1542 24.7775 28.7506 23.9171 29.792M26.3337 24.9733L23.9171 29.792M23.9171 29.792C23.0554 30.835 22.2099 31.2703 21.4415 31.2703M23.9171 29.792L21.4415 31.2703M21.4415 31.2703C20.673 31.2703 19.8276 30.835 18.9659 29.792M21.4415 31.2703L18.9659 29.792M18.9659 29.792C18.1055 28.7507 17.2751 27.1543 16.5493 24.9736L18.9659 29.792ZM14.9345 20.7483L11.0264 19.4505L16.5492 24.9733L15.2514 21.0653L15.1724 20.8274L14.9345 20.7483ZM19.3159 18.5868L19.3168 18.5859L24.8575 13.016C24.8577 13.0158 24.8579 13.0156 24.8582 13.0154C25.4757 12.3971 25.4755 11.381 24.8575 10.7631C24.2393 10.1449 23.2228 10.1449 22.6046 10.7631L22.6037 10.764L17.0629 16.3339C17.0628 16.334 17.0628 16.334 17.0627 16.3341C16.4447 16.9523 16.4448 17.9687 17.0629 18.5868C17.3804 18.9043 17.7869 19.0541 18.1894 19.0541C18.5919 19.0541 18.9984 18.9043 19.3159 18.5868Z" fill="#292D32" stroke="#373737"/>
</svg>
