<svg width="345" height="325" viewBox="0 0 345 325" fill="none" xmlns="http://www.w3.org/2000/svg">
<path fill-rule="evenodd" clip-rule="evenodd" d="M0 25C0 11.1929 11.1929 0 25 0H320C333.807 0 345 11.1929 345 25V78C345 91.8071 333.807 103 320 103H207.923C205.133 105.604 205.444 108.533 207.998 111H320C333.807 111 345 122.193 345 136V189C345 202.807 333.807 214 320 214H200.342C197.169 216.555 197.137 219.482 199.393 222H320C333.807 222 345 233.193 345 247V300C345 313.807 333.807 325 320 325H25C11.1929 325 0 313.807 0 300V247C0 233.193 11.1929 222 25 222H129.894C132.652 219.497 133.141 216.587 129.629 214H25C11.1929 214 0 202.807 0 189V136C0 122.193 11.1929 111 25 111H137.467C140.523 108.545 141.408 105.632 138.373 103H25C11.1929 103 0 91.8071 0 78V25Z" fill="url(#paint0_linear_760_2150)"/>
<defs>
<linearGradient id="paint0_linear_760_2150" x1="159.5" y1="2.47559e-05" x2="173" y2="326" gradientUnits="userSpaceOnUse">
<stop stop-color="#3D367F"/>
<stop offset="1" stop-color="#D0AAF5"/>
</linearGradient>
</defs>
</svg>
