<svg width="36" height="36" viewBox="0 0 36 36" fill="none" xmlns="http://www.w3.org/2000/svg">
<path d="M32.055 17.1689L32.055 17.1688C31.5762 9.00018 24.1549 2.70526 15.6023 4.11416L32.055 17.1689ZM32.055 17.1689C32.5194 25.0776 25.9227 32.0833 17.9854 32.0833C15.3787 32.0833 12.943 31.379 10.8596 30.1544L10.6772 30.0471L10.4732 30.1034L5.71902 31.4159L5.71558 31.4169C5.01331 31.6162 4.34915 30.9704 4.54133 30.2481C4.54138 30.2479 4.54143 30.2477 4.54148 30.2476L5.83915 25.4215L5.89296 25.2214L5.78943 25.0419C4.25466 22.3806 3.54988 19.1561 4.08563 15.7442L4.08575 15.7435M32.055 17.1689L4.08575 15.7435M4.08575 15.7435C5.00054 9.86064 9.71982 5.08526 15.6021 4.11419L4.08575 15.7435ZM25.5639 23.6486L25.569 23.6384L25.5736 23.6281C25.6451 23.4672 25.6961 23.3079 25.7376 23.17C25.7495 23.1305 25.7604 23.0938 25.7706 23.0591C25.7988 22.964 25.8224 22.8839 25.8507 22.8039L25.8792 22.7231V22.6375C25.8792 22.3539 25.8165 22.1164 25.7292 21.8893L25.7205 21.8667L25.7097 21.8451C25.5863 21.5983 25.4011 21.3732 25.1416 21.1929L22.7279 19.4772C22.5121 19.3162 22.3012 19.2123 22.1298 19.1344C21.9062 19.0327 21.69 18.9875 21.4709 18.9875C21.1671 18.9875 20.9209 19.0845 20.7001 19.2124C20.4918 19.327 20.2813 19.4886 20.0673 19.7027L20.0672 19.7027L19.5323 20.2378L19.5286 20.236C19.519 20.2312 19.5005 20.2219 19.4806 20.2128C19.4713 20.2085 19.4605 20.2037 19.4483 20.1987C19.2433 20.087 18.9616 19.8951 18.6152 19.602C18.2322 19.2757 17.863 18.935 17.4786 18.5506C17.113 18.185 16.7735 17.8034 16.4386 17.4249C16.1379 17.0694 15.9424 16.8095 15.8347 16.6174C15.825 16.5895 15.8127 16.5566 15.7965 16.5192L16.3166 15.9717C16.5196 15.7679 16.6758 15.5604 16.7986 15.3499C16.9308 15.1232 17.0271 14.8613 17.0271 14.5729C17.0271 14.3595 16.9842 14.1488 16.888 13.9313C16.8047 13.7111 16.6717 13.5096 16.5444 13.3258L16.5444 13.3258L16.5415 13.3217L14.8512 10.9319C14.6612 10.6584 14.4113 10.4746 14.1553 10.3564C13.8992 10.2382 13.6235 10.1792 13.3479 10.1792C12.6599 10.1792 12.0293 10.4624 11.4846 11.0042C11.0423 11.4155 10.723 11.8836 10.5202 12.4065C10.3203 12.9071 10.223 13.451 10.223 14.0042C10.223 14.8399 10.4158 15.7079 10.7871 16.5898C11.1543 17.4619 11.6556 18.3257 12.2712 19.1815L12.2711 19.1815L12.2745 19.1861C12.8994 20.0342 13.5864 20.856 14.3652 21.6348L14.3687 21.6382C15.1408 22.3955 15.9473 23.0979 16.8172 23.7279L16.8185 23.7288C17.6743 24.3444 18.5364 24.8445 19.4195 25.2253C20.3042 25.6131 21.174 25.8062 21.9958 25.8062C22.561 25.8062 23.1093 25.7097 23.6173 25.4907C24.1359 25.282 24.5867 24.9416 24.9877 24.5085L24.9879 24.5086L24.9971 24.498C25.2322 24.2294 25.4157 23.9451 25.5639 23.6486ZM19.529 20.2381C19.5297 20.2384 19.5305 20.2386 19.5312 20.2389L19.529 20.2381Z" fill="#373737" stroke="#373737"/>
</svg>
